<mxfile host="app.diagrams.net" modified="2023-10-06T16:02:48.977Z" agent="Mozilla/5.0 (Windows NT 10.0; Win64; x64) AppleWebKit/537.36 (KHTML, like Gecko) Chrome/117.0.0.0 Safari/537.36 Edg/117.0.2045.47" etag="JAtUSlzqMdRpRmCsTi6d" version="22.0.0" type="dropbox">
  <diagram name="Página-1" id="6KRU1tMrloKfOh3Xu1Gy">
    <mxGraphModel dx="1976" dy="2805" grid="1" gridSize="10" guides="1" tooltips="1" connect="1" arrows="1" fold="1" page="1" pageScale="1" pageWidth="1654" pageHeight="1169" math="0" shadow="0">
      <root>
        <mxCell id="0" />
        <mxCell id="1" parent="0" />
        <mxCell id="WUfntmtGWfIlqMy6BizM-7" style="edgeStyle=orthogonalEdgeStyle;rounded=0;orthogonalLoop=1;jettySize=auto;html=1;exitX=0.5;exitY=0;exitDx=0;exitDy=0;exitPerimeter=0;" edge="1" parent="1" source="WUfntmtGWfIlqMy6BizM-5" target="WUfntmtGWfIlqMy6BizM-6">
          <mxGeometry relative="1" as="geometry" />
        </mxCell>
        <mxCell id="WUfntmtGWfIlqMy6BizM-5" value="Eventos de Recarga" style="shape=cylinder3;whiteSpace=wrap;html=1;boundedLbl=1;backgroundOutline=1;size=15;labelBorderColor=none;fontSize=11;fillColor=#d5e8d4;direction=south;strokeColor=#82b366;strokeWidth=1;fontStyle=1;shadow=1;" vertex="1" parent="1">
          <mxGeometry x="-1600" y="-1020" width="120" height="60" as="geometry" />
        </mxCell>
        <mxCell id="WUfntmtGWfIlqMy6BizM-19" style="edgeStyle=orthogonalEdgeStyle;rounded=0;orthogonalLoop=1;jettySize=auto;html=1;exitX=0.5;exitY=1;exitDx=0;exitDy=0;entryX=0.5;entryY=0;entryDx=0;entryDy=0;" edge="1" parent="1" source="WUfntmtGWfIlqMy6BizM-6" target="WUfntmtGWfIlqMy6BizM-18">
          <mxGeometry relative="1" as="geometry" />
        </mxCell>
        <mxCell id="WUfntmtGWfIlqMy6BizM-6" value="¿Es Prepago?" style="rhombus;whiteSpace=wrap;html=1;fontSize=9;" vertex="1" parent="1">
          <mxGeometry x="-1440" y="-1010" width="90" height="40" as="geometry" />
        </mxCell>
        <mxCell id="WUfntmtGWfIlqMy6BizM-24" style="edgeStyle=orthogonalEdgeStyle;rounded=0;orthogonalLoop=1;jettySize=auto;html=1;exitX=0;exitY=0.5;exitDx=0;exitDy=0;entryX=1;entryY=0.5;entryDx=0;entryDy=0;" edge="1" parent="1" source="WUfntmtGWfIlqMy6BizM-13">
          <mxGeometry relative="1" as="geometry">
            <mxPoint x="-1481" y="-584.9949999999999" as="targetPoint" />
          </mxGeometry>
        </mxCell>
        <mxCell id="WUfntmtGWfIlqMy6BizM-26" style="edgeStyle=orthogonalEdgeStyle;rounded=0;orthogonalLoop=1;jettySize=auto;html=1;exitX=1;exitY=0.5;exitDx=0;exitDy=0;entryX=0;entryY=0.75;entryDx=0;entryDy=0;" edge="1" parent="1" source="WUfntmtGWfIlqMy6BizM-13" target="WUfntmtGWfIlqMy6BizM-25">
          <mxGeometry relative="1" as="geometry" />
        </mxCell>
        <mxCell id="WUfntmtGWfIlqMy6BizM-13" value="¿Tiene&lt;br&gt;recargas &amp;gt;= 5 &lt;br&gt;en el M-1 y &lt;br style=&quot;font-size: 9px;&quot;&gt;M-2?" style="rhombus;whiteSpace=wrap;html=1;fontSize=9;" vertex="1" parent="1">
          <mxGeometry x="-1441" y="-615" width="90" height="60" as="geometry" />
        </mxCell>
        <mxCell id="WUfntmtGWfIlqMy6BizM-119" style="edgeStyle=orthogonalEdgeStyle;rounded=0;orthogonalLoop=1;jettySize=auto;html=1;exitX=0.5;exitY=1;exitDx=0;exitDy=0;entryX=0.5;entryY=0;entryDx=0;entryDy=0;" edge="1" parent="1" source="WUfntmtGWfIlqMy6BizM-18" target="WUfntmtGWfIlqMy6BizM-117">
          <mxGeometry relative="1" as="geometry" />
        </mxCell>
        <mxCell id="WUfntmtGWfIlqMy6BizM-18" value="¿Es Preplan?" style="rhombus;whiteSpace=wrap;html=1;fontSize=9;" vertex="1" parent="1">
          <mxGeometry x="-1440" y="-950" width="90" height="40" as="geometry" />
        </mxCell>
        <mxCell id="WUfntmtGWfIlqMy6BizM-22" style="edgeStyle=orthogonalEdgeStyle;rounded=0;orthogonalLoop=1;jettySize=auto;html=1;exitX=0.5;exitY=1;exitDx=0;exitDy=0;entryX=0.5;entryY=0;entryDx=0;entryDy=0;" edge="1" parent="1" source="WUfntmtGWfIlqMy6BizM-20" target="WUfntmtGWfIlqMy6BizM-34">
          <mxGeometry relative="1" as="geometry" />
        </mxCell>
        <mxCell id="WUfntmtGWfIlqMy6BizM-20" value="¿Recarga &amp;gt;=5?" style="rhombus;whiteSpace=wrap;html=1;fontSize=9;" vertex="1" parent="1">
          <mxGeometry x="-1441" y="-735" width="90" height="40" as="geometry" />
        </mxCell>
        <mxCell id="WUfntmtGWfIlqMy6BizM-23" value="&lt;p style=&quot;line-height: 50%;&quot;&gt;&lt;font style=&quot;font-size: 6px;&quot;&gt;Validar en la entidad&amp;nbsp;&lt;br&gt;&lt;font style=&quot;font-size: 6px;&quot;&gt;H:CAMPAIGNS:RECHARGE.PHONE_NUMBER&lt;br&gt;por fecha de recarga&lt;br&gt;&lt;/font&gt;&lt;/font&gt;&lt;/p&gt;" style="rounded=0;whiteSpace=wrap;html=1;spacing=1;" vertex="1" parent="1">
          <mxGeometry x="-1621" y="-604.59" width="140" height="37.19" as="geometry" />
        </mxCell>
        <mxCell id="WUfntmtGWfIlqMy6BizM-67" style="edgeStyle=orthogonalEdgeStyle;rounded=0;orthogonalLoop=1;jettySize=auto;html=1;exitX=1;exitY=0.5;exitDx=0;exitDy=0;entryX=0;entryY=0.5;entryDx=0;entryDy=0;" edge="1" parent="1" source="WUfntmtGWfIlqMy6BizM-25" target="WUfntmtGWfIlqMy6BizM-49">
          <mxGeometry relative="1" as="geometry" />
        </mxCell>
        <mxCell id="WUfntmtGWfIlqMy6BizM-105" style="edgeStyle=orthogonalEdgeStyle;rounded=0;orthogonalLoop=1;jettySize=auto;html=1;exitX=0.5;exitY=0;exitDx=0;exitDy=0;entryX=0.5;entryY=1;entryDx=0;entryDy=0;" edge="1" parent="1" source="WUfntmtGWfIlqMy6BizM-25" target="WUfntmtGWfIlqMy6BizM-27">
          <mxGeometry relative="1" as="geometry" />
        </mxCell>
        <mxCell id="WUfntmtGWfIlqMy6BizM-108" style="edgeStyle=orthogonalEdgeStyle;rounded=0;orthogonalLoop=1;jettySize=auto;html=1;exitX=1;exitY=0.25;exitDx=0;exitDy=0;entryX=0;entryY=0.5;entryDx=0;entryDy=0;" edge="1" parent="1" source="WUfntmtGWfIlqMy6BizM-25" target="WUfntmtGWfIlqMy6BizM-69">
          <mxGeometry relative="1" as="geometry" />
        </mxCell>
        <mxCell id="WUfntmtGWfIlqMy6BizM-25" value="&lt;p style=&quot;line-height: 90%; font-size: 8px;&quot;&gt;&lt;/p&gt;&lt;div style=&quot;line-height: 100%;&quot;&gt;&lt;span style=&quot;background-color: initial;&quot;&gt;&lt;font style=&quot;font-size: 8px;&quot;&gt;&lt;b style=&quot;&quot;&gt;&lt;i style=&quot;&quot;&gt;Enviar SatPush&lt;/i&gt;&lt;/b&gt;&lt;/font&gt;&lt;/span&gt;&lt;/div&gt;&lt;div style=&quot;line-height: 100%;&quot;&gt;&lt;span style=&quot;background-color: initial;&quot;&gt;&lt;font style=&quot;font-size: 8px;&quot;&gt;&lt;b&gt;&lt;i&gt;&lt;br&gt;&lt;/i&gt;&lt;/b&gt;&lt;/font&gt;&lt;/span&gt;&lt;/div&gt;&lt;font style=&quot;font-size: 8px;&quot;&gt;&lt;div style=&quot;line-height: 100%;&quot;&gt;&lt;span style=&quot;background-color: initial;&quot;&gt;Evaluar con quantityBonus, lista recargas que SatPush se enviara:&lt;/span&gt;&lt;/div&gt;&lt;/font&gt;&lt;p style=&quot;line-height: 100%;&quot;&gt;&lt;/p&gt;&lt;p style=&quot;text-align: justify; line-height: 100%;&quot;&gt;&lt;font style=&quot;font-size: 8px;&quot;&gt;&lt;font style=&quot;font-size: 8px;&quot;&gt;Ordenar sus Bonos de mayor a menor.&lt;/font&gt;&lt;/font&gt;&lt;/p&gt;&lt;p style=&quot;text-align: justify; line-height: 100%;&quot;&gt;&lt;b&gt;&lt;font style=&quot;font-size: 8px;&quot;&gt;No tiene registro&lt;/font&gt;&lt;/b&gt;&lt;/p&gt;&lt;p style=&quot;text-align: justify; line-height: 100%;&quot;&gt;&lt;i&gt;&lt;font style=&quot;font-size: 8px;&quot;&gt;- Satpush Tenor 1&lt;/font&gt;&lt;/i&gt;&lt;/p&gt;&lt;p style=&quot;text-align: justify; line-height: 100%;&quot;&gt;&lt;i&gt;&lt;font style=&quot;font-size: 8px;&quot;&gt;&lt;br&gt;&lt;/font&gt;&lt;/i&gt;&lt;/p&gt;&lt;p style=&quot;border-color: var(--border-color); text-align: justify; line-height: 100%;&quot;&gt;&lt;b&gt;&lt;font style=&quot;font-size: 8px;&quot;&gt;Ultimo Bono fue el mes pasado + Q MES DE APAGADO &amp;amp;&amp;amp;&amp;nbsp;&lt;/font&gt;&lt;/b&gt;&lt;b style=&quot;background-color: initial;&quot;&gt;Cantidad de Bonos = 1&lt;/b&gt;&lt;/p&gt;&lt;p style=&quot;text-align: justify; line-height: 100%;&quot;&gt;&lt;i&gt;&lt;font style=&quot;font-size: 8px;&quot;&gt;- SatPush Tenor 2&lt;/font&gt;&lt;/i&gt;&lt;/p&gt;&lt;p style=&quot;text-align: justify; line-height: 100%;&quot;&gt;&lt;i&gt;&lt;font style=&quot;font-size: 8px;&quot;&gt;&lt;br&gt;&lt;/font&gt;&lt;/i&gt;&lt;/p&gt;&lt;p style=&quot;text-align: justify; line-height: 100%;&quot;&gt;&lt;b&gt;&lt;font style=&quot;font-size: 8px;&quot;&gt;Ultimo Bono no fue el mes pasado &amp;amp;&amp;amp;&lt;/font&gt;&lt;/b&gt;&lt;/p&gt;&lt;p style=&quot;text-align: justify; line-height: 100%;&quot;&gt;&lt;b&gt;&lt;font style=&quot;font-size: 8px;&quot;&gt;Cantidad de Bonos = 2&lt;/font&gt;&lt;/b&gt;&lt;/p&gt;&lt;p style=&quot;text-align: justify; line-height: 100%;&quot;&gt;&lt;font style=&quot;font-size: 8px;&quot;&gt;&amp;nbsp;- SatPush Tenor 3&lt;/font&gt;&lt;/p&gt;&lt;p style=&quot;text-align: justify; line-height: 100%;&quot;&gt;&lt;font style=&quot;font-size: 8px;&quot;&gt;&lt;br&gt;&lt;/font&gt;&lt;/p&gt;&lt;p style=&quot;border-color: var(--border-color); text-align: justify; line-height: 100%;&quot;&gt;&lt;b style=&quot;border-color: var(--border-color);&quot;&gt;&lt;font style=&quot;font-size: 8px;&quot;&gt;Ultimo Bono fue el mes pasado &amp;amp;&amp;amp;&lt;/font&gt;&lt;/b&gt;&lt;/p&gt;&lt;p style=&quot;border-color: var(--border-color); text-align: justify; line-height: 100%;&quot;&gt;&lt;b style=&quot;border-color: var(--border-color);&quot;&gt;&lt;font style=&quot;font-size: 8px;&quot;&gt;Cantidad de Bonos &amp;gt;=3&lt;/font&gt;&lt;/b&gt;&lt;/p&gt;&lt;p style=&quot;border-color: var(--border-color); text-align: justify; line-height: 100%;&quot;&gt;&lt;i style=&quot;border-color: var(--border-color);&quot;&gt;&lt;font style=&quot;font-size: 8px;&quot;&gt;- SatPush Tenor 2&lt;/font&gt;&lt;/i&gt;&lt;/p&gt;&lt;p style=&quot;border-color: var(--border-color); text-align: justify; line-height: 100%;&quot;&gt;&lt;i style=&quot;border-color: var(--border-color);&quot;&gt;&lt;font style=&quot;font-size: 8px;&quot;&gt;&lt;br&gt;&lt;/font&gt;&lt;/i&gt;&lt;/p&gt;&lt;div style=&quot;line-height: 100%;&quot;&gt;&lt;i style=&quot;border-color: var(--border-color);&quot;&gt;&lt;font style=&quot;font-size: 8px;&quot;&gt;&lt;p style=&quot;border-color: var(--border-color); font-style: normal; text-align: justify; line-height: 100%;&quot;&gt;&lt;b style=&quot;border-color: var(--border-color);&quot;&gt;Ultimo Bono no fue el mes pasado &amp;amp;&amp;amp;&lt;/b&gt;&lt;/p&gt;&lt;p style=&quot;border-color: var(--border-color); font-style: normal; text-align: justify; line-height: 100%;&quot;&gt;&lt;b style=&quot;border-color: var(--border-color);&quot;&gt;Cantidad de Bonos &amp;gt;=3&lt;/b&gt;&lt;/p&gt;&lt;p style=&quot;border-color: var(--border-color); font-style: normal; text-align: justify; line-height: 100%;&quot;&gt;&lt;b style=&quot;border-color: var(--border-color);&quot;&gt;-&amp;nbsp;&lt;/b&gt;SatPush Tenor 3&lt;/p&gt;&lt;/font&gt;&lt;/i&gt;&lt;/div&gt;" style="rounded=0;whiteSpace=wrap;html=1;spacing=1;fontSize=8;" vertex="1" parent="1">
          <mxGeometry x="-1159" y="-825.99" width="150" height="345.99" as="geometry" />
        </mxCell>
        <mxCell id="WUfntmtGWfIlqMy6BizM-30" style="edgeStyle=orthogonalEdgeStyle;rounded=0;orthogonalLoop=1;jettySize=auto;html=1;exitX=1;exitY=0.5;exitDx=0;exitDy=0;" edge="1" parent="1" source="WUfntmtGWfIlqMy6BizM-27" target="WUfntmtGWfIlqMy6BizM-29">
          <mxGeometry relative="1" as="geometry" />
        </mxCell>
        <mxCell id="WUfntmtGWfIlqMy6BizM-107" style="edgeStyle=orthogonalEdgeStyle;rounded=0;orthogonalLoop=1;jettySize=auto;html=1;" edge="1" parent="1" source="WUfntmtGWfIlqMy6BizM-27" target="WUfntmtGWfIlqMy6BizM-106">
          <mxGeometry relative="1" as="geometry">
            <mxPoint x="-1084.0000000000002" y="-908" as="targetPoint" />
          </mxGeometry>
        </mxCell>
        <mxCell id="WUfntmtGWfIlqMy6BizM-27" value="&lt;p style=&quot;line-height: 110%; font-size: 8px;&quot;&gt;&lt;font style=&quot;font-size: 8px;&quot;&gt;&lt;font style=&quot;font-size: 8px;&quot;&gt;Guardar en la entidad Contactabilidad con expiración fin del mes actual(Evitar enviar mas SatPush)&lt;br style=&quot;font-size: 8px;&quot;&gt;&lt;/font&gt;&lt;/font&gt;&lt;/p&gt;" style="rounded=0;whiteSpace=wrap;html=1;spacing=1;fontSize=8;" vertex="1" parent="1">
          <mxGeometry x="-1159" y="-878" width="150" height="33" as="geometry" />
        </mxCell>
        <mxCell id="WUfntmtGWfIlqMy6BizM-29" value="&lt;p style=&quot;line-height: 0%;&quot;&gt;&lt;font style=&quot;font-size: 6px;&quot;&gt;&lt;font style=&quot;font-size: 6px;&quot;&gt;H:CAMPAIGNS:PREPAIDREBORN&lt;/font&gt;&lt;/font&gt;&lt;/p&gt;&lt;p style=&quot;line-height: 0%;&quot;&gt;&lt;span style=&quot;background-color: initial; font-size: 6px;&quot;&gt;CONTACTABILITY.PHONE_NUMBER&lt;/span&gt;&lt;/p&gt;" style="rounded=0;whiteSpace=wrap;html=1;spacing=1;" vertex="1" parent="1">
          <mxGeometry x="-960" y="-880" width="110" height="36.5" as="geometry" />
        </mxCell>
        <mxCell id="WUfntmtGWfIlqMy6BizM-42" style="edgeStyle=orthogonalEdgeStyle;rounded=0;orthogonalLoop=1;jettySize=auto;html=1;exitX=0.5;exitY=1;exitDx=0;exitDy=0;" edge="1" parent="1" source="WUfntmtGWfIlqMy6BizM-51" target="WUfntmtGWfIlqMy6BizM-38">
          <mxGeometry relative="1" as="geometry">
            <mxPoint x="-645" y="-812.5" as="sourcePoint" />
          </mxGeometry>
        </mxCell>
        <mxCell id="WUfntmtGWfIlqMy6BizM-35" style="edgeStyle=orthogonalEdgeStyle;rounded=0;orthogonalLoop=1;jettySize=auto;html=1;exitX=0.5;exitY=1;exitDx=0;exitDy=0;entryX=0.5;entryY=0;entryDx=0;entryDy=0;" edge="1" parent="1" source="WUfntmtGWfIlqMy6BizM-34" target="WUfntmtGWfIlqMy6BizM-13">
          <mxGeometry relative="1" as="geometry" />
        </mxCell>
        <mxCell id="WUfntmtGWfIlqMy6BizM-34" value="¿Contactabilidad Valida?" style="rhombus;whiteSpace=wrap;html=1;fontSize=9;" vertex="1" parent="1">
          <mxGeometry x="-1441" y="-675" width="90" height="40" as="geometry" />
        </mxCell>
        <mxCell id="WUfntmtGWfIlqMy6BizM-44" style="edgeStyle=orthogonalEdgeStyle;rounded=0;orthogonalLoop=1;jettySize=auto;html=1;exitX=0.5;exitY=1;exitDx=0;exitDy=0;" edge="1" parent="1" source="WUfntmtGWfIlqMy6BizM-38" target="WUfntmtGWfIlqMy6BizM-40">
          <mxGeometry relative="1" as="geometry" />
        </mxCell>
        <mxCell id="WUfntmtGWfIlqMy6BizM-38" value="Recarga entre 5 y 19.9" style="rounded=0;whiteSpace=wrap;html=1;fontSize=9;" vertex="1" parent="1">
          <mxGeometry x="-730" y="-842.5" width="80" height="30" as="geometry" />
        </mxCell>
        <mxCell id="WUfntmtGWfIlqMy6BizM-45" style="edgeStyle=orthogonalEdgeStyle;rounded=0;orthogonalLoop=1;jettySize=auto;html=1;exitX=0.5;exitY=1;exitDx=0;exitDy=0;entryX=0.5;entryY=0;entryDx=0;entryDy=0;" edge="1" parent="1" source="WUfntmtGWfIlqMy6BizM-39" target="WUfntmtGWfIlqMy6BizM-41">
          <mxGeometry relative="1" as="geometry" />
        </mxCell>
        <mxCell id="WUfntmtGWfIlqMy6BizM-39" value="Recarga &amp;gt;19.9" style="rounded=0;whiteSpace=wrap;html=1;fontSize=9;" vertex="1" parent="1">
          <mxGeometry x="-640" y="-842.5" width="80" height="30" as="geometry" />
        </mxCell>
        <mxCell id="WUfntmtGWfIlqMy6BizM-64" style="edgeStyle=orthogonalEdgeStyle;rounded=0;orthogonalLoop=1;jettySize=auto;html=1;exitX=0.5;exitY=1;exitDx=0;exitDy=0;" edge="1" parent="1" source="WUfntmtGWfIlqMy6BizM-40" target="WUfntmtGWfIlqMy6BizM-62">
          <mxGeometry relative="1" as="geometry" />
        </mxCell>
        <mxCell id="WUfntmtGWfIlqMy6BizM-40" value="BONO 3GB X 3 DIAS" style="rounded=0;whiteSpace=wrap;html=1;fontSize=9;" vertex="1" parent="1">
          <mxGeometry x="-730" y="-792.5" width="80" height="30" as="geometry" />
        </mxCell>
        <mxCell id="WUfntmtGWfIlqMy6BizM-65" style="edgeStyle=orthogonalEdgeStyle;rounded=0;orthogonalLoop=1;jettySize=auto;html=1;exitX=0.5;exitY=1;exitDx=0;exitDy=0;entryX=0.5;entryY=0;entryDx=0;entryDy=0;" edge="1" parent="1" source="WUfntmtGWfIlqMy6BizM-41" target="WUfntmtGWfIlqMy6BizM-62">
          <mxGeometry relative="1" as="geometry" />
        </mxCell>
        <mxCell id="WUfntmtGWfIlqMy6BizM-41" value="BONO 3GB X 7 DIAS" style="rounded=0;whiteSpace=wrap;html=1;fontSize=9;" vertex="1" parent="1">
          <mxGeometry x="-640" y="-792.5" width="80" height="30" as="geometry" />
        </mxCell>
        <mxCell id="WUfntmtGWfIlqMy6BizM-55" style="edgeStyle=orthogonalEdgeStyle;rounded=0;orthogonalLoop=1;jettySize=auto;html=1;exitX=0.5;exitY=0;exitDx=0;exitDy=0;exitPerimeter=0;entryX=0;entryY=0.5;entryDx=0;entryDy=0;" edge="1" parent="1" source="WUfntmtGWfIlqMy6BizM-48" target="WUfntmtGWfIlqMy6BizM-109">
          <mxGeometry relative="1" as="geometry" />
        </mxCell>
        <mxCell id="WUfntmtGWfIlqMy6BizM-48" value="Eventos de Aceptación SatPush" style="shape=cylinder3;whiteSpace=wrap;html=1;boundedLbl=1;backgroundOutline=1;size=15;labelBorderColor=none;fontSize=11;fillColor=#d5e8d4;direction=south;strokeColor=#82b366;strokeWidth=1;fontStyle=1;shadow=1;" vertex="1" parent="1">
          <mxGeometry x="-900" y="-1030" width="120" height="60" as="geometry" />
        </mxCell>
        <mxCell id="WUfntmtGWfIlqMy6BizM-49" value="Enviar Campaign:&lt;br&gt;PREPAID_REBORN_1&lt;br&gt;PREPAID_REBORN_2" style="rounded=0;whiteSpace=wrap;html=1;fontSize=7;" vertex="1" parent="1">
          <mxGeometry x="-960" y="-673" width="110" height="40" as="geometry" />
        </mxCell>
        <mxCell id="WUfntmtGWfIlqMy6BizM-57" style="edgeStyle=orthogonalEdgeStyle;rounded=0;orthogonalLoop=1;jettySize=auto;html=1;exitX=0.5;exitY=0;exitDx=0;exitDy=0;entryX=0.5;entryY=0;entryDx=0;entryDy=0;" edge="1" parent="1" source="WUfntmtGWfIlqMy6BizM-51" target="WUfntmtGWfIlqMy6BizM-53">
          <mxGeometry relative="1" as="geometry" />
        </mxCell>
        <mxCell id="WUfntmtGWfIlqMy6BizM-51" value="PREPAID_REBORN_1" style="rounded=0;whiteSpace=wrap;html=1;fontSize=6;" vertex="1" parent="1">
          <mxGeometry x="-730" y="-892.5" width="80" height="30" as="geometry" />
        </mxCell>
        <mxCell id="WUfntmtGWfIlqMy6BizM-54" style="edgeStyle=orthogonalEdgeStyle;rounded=0;orthogonalLoop=1;jettySize=auto;html=1;exitX=0.5;exitY=1;exitDx=0;exitDy=0;entryX=0.5;entryY=0;entryDx=0;entryDy=0;" edge="1" parent="1" source="WUfntmtGWfIlqMy6BizM-53" target="WUfntmtGWfIlqMy6BizM-39">
          <mxGeometry relative="1" as="geometry" />
        </mxCell>
        <mxCell id="WUfntmtGWfIlqMy6BizM-53" value="PREPAID_REBORN_2" style="rounded=0;whiteSpace=wrap;html=1;fontSize=6;" vertex="1" parent="1">
          <mxGeometry x="-640" y="-892.5" width="80" height="30" as="geometry" />
        </mxCell>
        <mxCell id="WUfntmtGWfIlqMy6BizM-58" value="Eventos de SMS" style="shape=cylinder3;whiteSpace=wrap;html=1;boundedLbl=1;backgroundOutline=1;size=15;labelBorderColor=none;fontSize=11;fillColor=#d5e8d4;direction=south;strokeColor=#82b366;strokeWidth=1;fontStyle=1;shadow=1;" vertex="1" parent="1">
          <mxGeometry x="-705" y="-522.5" width="120" height="60" as="geometry" />
        </mxCell>
        <mxCell id="WUfntmtGWfIlqMy6BizM-66" style="edgeStyle=orthogonalEdgeStyle;rounded=0;orthogonalLoop=1;jettySize=auto;html=1;exitX=0.5;exitY=1;exitDx=0;exitDy=0;" edge="1" parent="1" source="WUfntmtGWfIlqMy6BizM-62" target="WUfntmtGWfIlqMy6BizM-58">
          <mxGeometry relative="1" as="geometry" />
        </mxCell>
        <mxCell id="WUfntmtGWfIlqMy6BizM-62" value="&lt;p style=&quot;line-height: 50%; font-size: 8px;&quot;&gt;&lt;font style=&quot;font-size: 8px;&quot;&gt;&lt;font style=&quot;font-size: 8px;&quot;&gt;Guardar&amp;nbsp; entidad Redis Bonos Plan Renacer&lt;/font&gt;&lt;/font&gt;&lt;/p&gt;&lt;p style=&quot;line-height: 50%; font-size: 8px;&quot;&gt;&lt;span style=&quot;background-color: initial;&quot;&gt;{&lt;/span&gt;&lt;/p&gt;&lt;p style=&quot;line-height: 50%; font-size: 8px;&quot;&gt;&lt;span style=&quot;background-color: initial;&quot;&gt;&lt;span style=&quot;white-space: pre;&quot;&gt;&#x9;&lt;/span&gt;&quot;quantityBonus&quot;: 1(incremental)&lt;br&gt;&lt;/span&gt;&lt;/p&gt;&lt;p style=&quot;line-height: 50%; font-size: 8px;&quot;&gt;&lt;span style=&quot;white-space: pre;&quot;&gt;&#x9;&lt;/span&gt;&quot;firstTime&quot;: &quot;05/10/2023&quot;,&lt;br&gt;&lt;/p&gt;&lt;p style=&quot;line-height: 50%; font-size: 8px;&quot;&gt;&lt;span style=&quot;background-color: initial; white-space: pre;&quot;&gt;&#x9;&lt;/span&gt;&lt;span style=&quot;background-color: initial;&quot;&gt;&quot;provisioningBonus&quot;: [&lt;/span&gt;&lt;br&gt;&lt;/p&gt;&lt;p style=&quot;line-height: 50%; font-size: 8px;&quot;&gt;&lt;span style=&quot;white-space: pre;&quot;&gt;&#x9;&lt;/span&gt;&lt;span style=&quot;white-space: pre;&quot;&gt;&#x9;&lt;/span&gt;{&lt;br&gt;&lt;/p&gt;&lt;p style=&quot;line-height: 50%; font-size: 8px;&quot;&gt;&lt;span style=&quot;white-space: pre;&quot;&gt;&#x9;&lt;/span&gt;&lt;span style=&quot;white-space: pre;&quot;&gt;&#x9;&lt;/span&gt;&lt;span style=&quot;white-space: pre;&quot;&gt;&#x9;&lt;/span&gt;&quot;month&quot;: M1&lt;br&gt;&lt;/p&gt;&lt;p style=&quot;line-height: 50%; font-size: 8px;&quot;&gt;&lt;span style=&quot;white-space: pre;&quot;&gt;&#x9;&lt;/span&gt;&lt;span style=&quot;white-space: pre;&quot;&gt;&#x9;&lt;/span&gt;&lt;span style=&quot;white-space: pre;&quot;&gt;&#x9;&lt;/span&gt;&quot;bonoCode&quot;:&lt;br&gt;&lt;/p&gt;&lt;p style=&quot;line-height: 50%; font-size: 8px;&quot;&gt;&lt;span style=&quot;white-space: pre;&quot;&gt;&#x9;&lt;/span&gt;&lt;span style=&quot;white-space: pre;&quot;&gt;&#x9;&lt;/span&gt;&lt;span style=&quot;white-space: pre;&quot;&gt;&#x9;&lt;/span&gt;&quot;bonoDate&quot;: &quot;&lt;br&gt;&lt;/p&gt;&lt;p style=&quot;line-height: 50%; font-size: 8px;&quot;&gt;&lt;span style=&quot;white-space: pre;&quot;&gt;&#x9;&lt;/span&gt;&lt;span style=&quot;white-space: pre;&quot;&gt;&#x9;&lt;/span&gt;},&lt;br&gt;&lt;/p&gt;&lt;p style=&quot;line-height: 50%; font-size: 8px;&quot;&gt;&lt;span style=&quot;white-space: pre;&quot;&gt;&#x9;&lt;/span&gt;&lt;span style=&quot;white-space: pre;&quot;&gt;&#x9;&lt;/span&gt;{&lt;br&gt;&lt;/p&gt;&lt;p style=&quot;line-height: 50%; font-size: 8px;&quot;&gt;&lt;span style=&quot;white-space: pre;&quot;&gt;&#x9;&lt;/span&gt;&lt;span style=&quot;white-space: pre;&quot;&gt;&#x9;&lt;/span&gt;}&lt;br&gt;&lt;/p&gt;&lt;p style=&quot;line-height: 50%; font-size: 8px;&quot;&gt;]&lt;/p&gt;&lt;p style=&quot;line-height: 50%; font-size: 8px;&quot;&gt;&lt;font style=&quot;font-size: 8px;&quot;&gt;&lt;font style=&quot;font-size: 8px;&quot;&gt;}&lt;/font&gt;&lt;/font&gt;&lt;/p&gt;" style="rounded=0;whiteSpace=wrap;html=1;spacing=1;fontSize=8;align=left;" vertex="1" parent="1">
          <mxGeometry x="-730" y="-727.5" width="170" height="180" as="geometry" />
        </mxCell>
        <mxCell id="WUfntmtGWfIlqMy6BizM-69" value="Guardar&amp;nbsp; Evento de SatPush&lt;br&gt;Oracle: Estado = Enviado" style="rounded=0;whiteSpace=wrap;html=1;fontSize=7;" vertex="1" parent="1">
          <mxGeometry x="-960" y="-754.5" width="110" height="30" as="geometry" />
        </mxCell>
        <mxCell id="WUfntmtGWfIlqMy6BizM-72" style="edgeStyle=orthogonalEdgeStyle;rounded=0;orthogonalLoop=1;jettySize=auto;html=1;exitX=0.5;exitY=1;exitDx=0;exitDy=0;" edge="1" parent="1" source="WUfntmtGWfIlqMy6BizM-71">
          <mxGeometry relative="1" as="geometry">
            <mxPoint x="-644.8095238095239" y="-912.5" as="targetPoint" />
          </mxGeometry>
        </mxCell>
        <mxCell id="WUfntmtGWfIlqMy6BizM-71" value="Actualizar Evento SatPush Oracle&lt;br&gt;Estado = Aceptado" style="rounded=0;whiteSpace=wrap;html=1;fontSize=7;" vertex="1" parent="1">
          <mxGeometry x="-705" y="-960" width="120" height="35" as="geometry" />
        </mxCell>
        <mxCell id="WUfntmtGWfIlqMy6BizM-75" style="edgeStyle=orthogonalEdgeStyle;rounded=0;orthogonalLoop=1;jettySize=auto;html=1;exitX=1;exitY=0.5;exitDx=0;exitDy=0;" edge="1" parent="1" source="WUfntmtGWfIlqMy6BizM-73" target="WUfntmtGWfIlqMy6BizM-74">
          <mxGeometry relative="1" as="geometry" />
        </mxCell>
        <mxCell id="WUfntmtGWfIlqMy6BizM-73" value="Obtener todos eventos &amp;gt;= +48 h&amp;nbsp; con estado Enviado&lt;br&gt;estadoSMS = False" style="rounded=0;whiteSpace=wrap;html=1;fontSize=7;" vertex="1" parent="1">
          <mxGeometry x="-1600" y="-1132.5" width="110" height="55" as="geometry" />
        </mxCell>
        <mxCell id="WUfntmtGWfIlqMy6BizM-77" style="edgeStyle=orthogonalEdgeStyle;rounded=0;orthogonalLoop=1;jettySize=auto;html=1;exitX=1;exitY=0.5;exitDx=0;exitDy=0;" edge="1" parent="1" source="WUfntmtGWfIlqMy6BizM-79" target="WUfntmtGWfIlqMy6BizM-76">
          <mxGeometry relative="1" as="geometry" />
        </mxCell>
        <mxCell id="WUfntmtGWfIlqMy6BizM-80" style="edgeStyle=orthogonalEdgeStyle;rounded=0;orthogonalLoop=1;jettySize=auto;html=1;exitX=0.5;exitY=0;exitDx=0;exitDy=0;exitPerimeter=0;entryX=0;entryY=0.5;entryDx=0;entryDy=0;" edge="1" parent="1" source="WUfntmtGWfIlqMy6BizM-74" target="WUfntmtGWfIlqMy6BizM-79">
          <mxGeometry relative="1" as="geometry" />
        </mxCell>
        <mxCell id="WUfntmtGWfIlqMy6BizM-74" value="Eventos de No Aceptación" style="shape=cylinder3;whiteSpace=wrap;html=1;boundedLbl=1;backgroundOutline=1;size=15;labelBorderColor=none;fontSize=11;fillColor=#d5e8d4;direction=south;strokeColor=#82b366;strokeWidth=1;fontStyle=1;shadow=1;" vertex="1" parent="1">
          <mxGeometry x="-1450" y="-1135" width="120" height="60" as="geometry" />
        </mxCell>
        <mxCell id="WUfntmtGWfIlqMy6BizM-76" value="Envio de SMS" style="shape=cylinder3;whiteSpace=wrap;html=1;boundedLbl=1;backgroundOutline=1;size=15;labelBorderColor=none;fontSize=11;fillColor=#d5e8d4;direction=south;strokeColor=#82b366;strokeWidth=1;fontStyle=1;shadow=1;" vertex="1" parent="1">
          <mxGeometry x="-1160" y="-1135.5" width="120" height="60" as="geometry" />
        </mxCell>
        <mxCell id="WUfntmtGWfIlqMy6BizM-78" value="Loading Process(Camel)" style="text;html=1;strokeColor=#9673a6;fillColor=#e1d5e7;align=center;verticalAlign=middle;whiteSpace=wrap;rounded=0;" vertex="1" parent="1">
          <mxGeometry x="-1600" y="-1180" width="110" height="42.5" as="geometry" />
        </mxCell>
        <mxCell id="WUfntmtGWfIlqMy6BizM-79" value="Actualizar registro&lt;br&gt;estadoSMS = True" style="rounded=0;whiteSpace=wrap;html=1;fontSize=7;" vertex="1" parent="1">
          <mxGeometry x="-1290" y="-1133" width="91" height="55" as="geometry" />
        </mxCell>
        <mxCell id="WUfntmtGWfIlqMy6BizM-96" style="edgeStyle=orthogonalEdgeStyle;rounded=0;orthogonalLoop=1;jettySize=auto;html=1;exitX=0.5;exitY=1;exitDx=0;exitDy=0;entryX=0.5;entryY=0;entryDx=0;entryDy=0;" edge="1" parent="1" source="WUfntmtGWfIlqMy6BizM-94" target="WUfntmtGWfIlqMy6BizM-20">
          <mxGeometry relative="1" as="geometry">
            <mxPoint x="-1396" y="-727" as="sourcePoint" />
          </mxGeometry>
        </mxCell>
        <mxCell id="WUfntmtGWfIlqMy6BizM-114" style="edgeStyle=orthogonalEdgeStyle;rounded=0;orthogonalLoop=1;jettySize=auto;html=1;exitX=1;exitY=0.5;exitDx=0;exitDy=0;entryX=0;entryY=0.5;entryDx=0;entryDy=0;" edge="1" parent="1" source="WUfntmtGWfIlqMy6BizM-94" target="WUfntmtGWfIlqMy6BizM-97">
          <mxGeometry relative="1" as="geometry" />
        </mxCell>
        <mxCell id="WUfntmtGWfIlqMy6BizM-116" style="edgeStyle=orthogonalEdgeStyle;rounded=0;orthogonalLoop=1;jettySize=auto;html=1;exitX=1;exitY=0.5;exitDx=0;exitDy=0;" edge="1" parent="1" source="WUfntmtGWfIlqMy6BizM-94">
          <mxGeometry relative="1" as="geometry">
            <mxPoint x="-1321" y="-867.9714285714285" as="targetPoint" />
            <Array as="points">
              <mxPoint x="-1341" y="-774" />
              <mxPoint x="-1341" y="-868" />
            </Array>
          </mxGeometry>
        </mxCell>
        <mxCell id="WUfntmtGWfIlqMy6BizM-94" value="&lt;span style=&quot;font-size: 8px;&quot;&gt;¿Validar Fechas y Veces Bono?&amp;nbsp;&lt;/span&gt;" style="rhombus;whiteSpace=wrap;html=1;fontSize=9;" vertex="1" parent="1">
          <mxGeometry x="-1441" y="-800.5" width="90" height="52.5" as="geometry" />
        </mxCell>
        <mxCell id="WUfntmtGWfIlqMy6BizM-97" value="Entidad Redis Bonos Plan Renacer" style="rounded=0;whiteSpace=wrap;html=1;fontSize=7;" vertex="1" parent="1">
          <mxGeometry x="-1321" y="-788.25" width="81" height="30" as="geometry" />
        </mxCell>
        <mxCell id="WUfntmtGWfIlqMy6BizM-101" style="edgeStyle=orthogonalEdgeStyle;rounded=0;orthogonalLoop=1;jettySize=auto;html=1;exitX=0.5;exitY=1;exitDx=0;exitDy=0;" edge="1" parent="1" source="WUfntmtGWfIlqMy6BizM-100" target="WUfntmtGWfIlqMy6BizM-94">
          <mxGeometry relative="1" as="geometry" />
        </mxCell>
        <mxCell id="WUfntmtGWfIlqMy6BizM-104" value="SI" style="edgeLabel;html=1;align=center;verticalAlign=middle;resizable=0;points=[];" vertex="1" connectable="0" parent="WUfntmtGWfIlqMy6BizM-101">
          <mxGeometry x="0.7823" y="-2" relative="1" as="geometry">
            <mxPoint x="13" y="-3" as="offset" />
          </mxGeometry>
        </mxCell>
        <mxCell id="WUfntmtGWfIlqMy6BizM-102" style="edgeStyle=orthogonalEdgeStyle;rounded=0;orthogonalLoop=1;jettySize=auto;html=1;exitX=0;exitY=0.5;exitDx=0;exitDy=0;entryX=0;entryY=0.5;entryDx=0;entryDy=0;" edge="1" parent="1" source="WUfntmtGWfIlqMy6BizM-100" target="WUfntmtGWfIlqMy6BizM-20">
          <mxGeometry relative="1" as="geometry" />
        </mxCell>
        <mxCell id="WUfntmtGWfIlqMy6BizM-103" value="NO" style="edgeLabel;html=1;align=center;verticalAlign=middle;resizable=0;points=[];" vertex="1" connectable="0" parent="WUfntmtGWfIlqMy6BizM-102">
          <mxGeometry x="-0.0671" relative="1" as="geometry">
            <mxPoint as="offset" />
          </mxGeometry>
        </mxCell>
        <mxCell id="WUfntmtGWfIlqMy6BizM-100" value="¿Registrado Entidad Bonos?" style="rhombus;whiteSpace=wrap;html=1;fontSize=9;" vertex="1" parent="1">
          <mxGeometry x="-1441" y="-862" width="90" height="40" as="geometry" />
        </mxCell>
        <mxCell id="WUfntmtGWfIlqMy6BizM-106" value="Enviar SatPush" style="shape=cylinder3;whiteSpace=wrap;html=1;boundedLbl=1;backgroundOutline=1;size=15;labelBorderColor=none;fontSize=11;fillColor=#d5e8d4;direction=south;strokeColor=#82b366;strokeWidth=1;fontStyle=1;shadow=1;" vertex="1" parent="1">
          <mxGeometry x="-1144" y="-970" width="120" height="60" as="geometry" />
        </mxCell>
        <mxCell id="WUfntmtGWfIlqMy6BizM-110" style="edgeStyle=orthogonalEdgeStyle;rounded=0;orthogonalLoop=1;jettySize=auto;html=1;exitX=0.5;exitY=1;exitDx=0;exitDy=0;entryX=0.5;entryY=0;entryDx=0;entryDy=0;" edge="1" parent="1" source="WUfntmtGWfIlqMy6BizM-109" target="WUfntmtGWfIlqMy6BizM-71">
          <mxGeometry relative="1" as="geometry" />
        </mxCell>
        <mxCell id="WUfntmtGWfIlqMy6BizM-109" value="Obtener Información de Promocion:&lt;br&gt;Fecha de Lanzamiento&amp;nbsp;&lt;br&gt;Fecha de Inicio&lt;br&gt;&amp;nbsp;Fecha Fin&lt;br&gt;Fecha Apagado Inicio:&lt;br&gt;Fecha Apagado Fin:" style="rounded=0;whiteSpace=wrap;html=1;fontSize=7;" vertex="1" parent="1">
          <mxGeometry x="-705" y="-1026.75" width="120" height="53.5" as="geometry" />
        </mxCell>
        <mxCell id="WUfntmtGWfIlqMy6BizM-111" value="Off:&amp;nbsp;" style="rounded=0;whiteSpace=wrap;html=1;fontSize=7;" vertex="1" parent="1">
          <mxGeometry x="-960" y="-601" width="120" height="53.5" as="geometry" />
        </mxCell>
        <mxCell id="WUfntmtGWfIlqMy6BizM-113" value="&lt;p style=&quot;line-height: 90%; font-size: 8px;&quot;&gt;&lt;/p&gt;&lt;div style=&quot;line-height: 100%; font-size: 7px;&quot;&gt;Fecha Primer Bono &amp;lt; Fecha Apagado THEN&lt;/div&gt;&lt;div style=&quot;line-height: 100%; font-size: 7px;&quot;&gt;&lt;br&gt;&lt;/div&gt;&lt;div style=&quot;line-height: 100%; font-size: 7px;&quot;&gt;Fecha de Inicio Apagado Hasta Fecha Fin de Apagado = X Meses&lt;/div&gt;&lt;div style=&quot;line-height: 100%; font-size: 7px;&quot;&gt;&lt;br&gt;&lt;/div&gt;&lt;div style=&quot;line-height: 100%; font-size: 7px;&quot;&gt;&lt;span style=&quot;background-color: initial;&quot;&gt;Fecha Ahora - Fecha de Primer Bono&amp;nbsp; - X MESES &amp;lt;= 12&lt;/span&gt;&lt;br&gt;&lt;/div&gt;&lt;div style=&quot;line-height: 100%; font-size: 7px;&quot;&gt;&lt;span style=&quot;background-color: initial;&quot;&gt;&lt;br&gt;&lt;/span&gt;&lt;/div&gt;&lt;div style=&quot;line-height: 100%; font-size: 7px;&quot;&gt;&lt;span style=&quot;background-color: initial;&quot;&gt;&lt;font style=&quot;font-size: 7px;&quot;&gt;TRUE&lt;/font&gt;&lt;/span&gt;&lt;/div&gt;&lt;div style=&quot;line-height: 100%; font-size: 7px;&quot;&gt;&lt;br&gt;&lt;/div&gt;&lt;div style=&quot;line-height: 100%; font-size: 7px;&quot;&gt;SI NO&lt;/div&gt;&lt;div style=&quot;line-height: 100%; font-size: 7px;&quot;&gt;Fecha Ahora - Fecha de Primer Bono&lt;span style=&quot;background-color: initial;&quot;&gt;&lt;font style=&quot;font-size: 7px;&quot;&gt;&lt;br&gt;&lt;/font&gt;&lt;/span&gt;&lt;/div&gt;&lt;div style=&quot;line-height: 100%; font-size: 7px;&quot;&gt;&amp;lt;=12&lt;/div&gt;&lt;div style=&quot;line-height: 100%; font-size: 7px;&quot;&gt;&lt;br&gt;&lt;/div&gt;&lt;div style=&quot;line-height: 100%; font-size: 7px;&quot;&gt;TRUE&lt;/div&gt;&lt;div style=&quot;line-height: 100%; font-size: 7px;&quot;&gt;&lt;br&gt;&lt;/div&gt;&lt;div style=&quot;line-height: 100%; font-size: 7px;&quot;&gt;SI NO FALSE&lt;/div&gt;" style="rounded=0;whiteSpace=wrap;html=1;spacing=1;fontSize=8;" vertex="1" parent="1">
          <mxGeometry x="-1320" y="-970" width="140" height="140" as="geometry" />
        </mxCell>
        <mxCell id="WUfntmtGWfIlqMy6BizM-120" style="edgeStyle=orthogonalEdgeStyle;rounded=0;orthogonalLoop=1;jettySize=auto;html=1;exitX=0.5;exitY=1;exitDx=0;exitDy=0;entryX=0.5;entryY=0;entryDx=0;entryDy=0;" edge="1" parent="1" source="WUfntmtGWfIlqMy6BizM-117" target="WUfntmtGWfIlqMy6BizM-100">
          <mxGeometry relative="1" as="geometry" />
        </mxCell>
        <mxCell id="WUfntmtGWfIlqMy6BizM-117" value="Obtener Info de Promoción" style="rounded=0;whiteSpace=wrap;html=1;fontSize=7;" vertex="1" parent="1">
          <mxGeometry x="-1436.5" y="-898" width="81" height="20" as="geometry" />
        </mxCell>
      </root>
    </mxGraphModel>
  </diagram>
</mxfile>
